<?xml version="1.0" encoding="utf-8"?>
<!-- Generator: Adobe Illustrator 16.0.0, SVG Export Plug-In . SVG Version: 6.00 Build 0)  -->
<!DOCTYPE svg PUBLIC "-//W3C//DTD SVG 1.1//EN" "http://www.w3.org/Graphics/SVG/1.1/DTD/svg11.dtd">
<svg version="1.1" id="Layer_1" xmlns="http://www.w3.org/2000/svg" xmlns:xlink="http://www.w3.org/1999/xlink" x="0px" y="0px"
	 width="500px" height="600px" viewBox="0 0 500 600" enable-background="new 0 0 500 600" xml:space="preserve">
<linearGradient id="SVGID_1_" gradientUnits="userSpaceOnUse" x1="-266.522" y1="500.6875" x2="678.0264" y2="500.6875">
	<stop  offset="0.3638" style="stop-color:#3D409A"/>
	<stop  offset="0.4188" style="stop-color:#02806C"/>
	<stop  offset="0.4982" style="stop-color:#54C2EF"/>
	<stop  offset="0.5735" style="stop-color:#CCD32B"/>
	<stop  offset="0.6551" style="stop-color:#E99723"/>
	<stop  offset="0.723" style="stop-color:#A955A1"/>
</linearGradient>
<rect x="-266.522" y="340.589" fill-rule="evenodd" clip-rule="evenodd" fill="url(#SVGID_1_)" width="944.548" height="320.198"/>
<rect y="-3.606" fill-rule="evenodd" clip-rule="evenodd" fill="#D9D832" width="500" height="342.695"/>
<g>
	<defs>
		<rect id="SVGID_2_" x="0" width="500" height="406.585"/>
	</defs>
	<clipPath id="SVGID_3_">
		<use xlink:href="#SVGID_2_"  overflow="visible"/>
	</clipPath>
	<linearGradient id="SVGID_4_" gradientUnits="userSpaceOnUse" x1="-268.6934" y1="211.5591" x2="677.7373" y2="211.5591">
		<stop  offset="0.3638" style="stop-color:#3D409A"/>
		<stop  offset="0.4188" style="stop-color:#02806C"/>
		<stop  offset="0.4982" style="stop-color:#54C2EF"/>
		<stop  offset="0.5735" style="stop-color:#CCD32B"/>
		<stop  offset="0.6551" style="stop-color:#E99723"/>
		<stop  offset="0.723" style="stop-color:#A955A1"/>
	</linearGradient>
	<path clip-path="url(#SVGID_3_)" fill-rule="evenodd" clip-rule="evenodd" fill="url(#SVGID_4_)" d="M-268.693,383.903
		c0-15.453,0-30.757,0-46.374c2.122,0,4.13,0.084,6.125-0.027c1.407-0.08,2.868-0.227,4.185-0.688
		c5.815-2.031,11.843-2.439,17.917-2.566c0.423-0.01,0.848-0.045,1.264-0.002c2.585,0.27,4.78-0.471,6.554-2.416
		c0.911-1.002,2.078-1.289,3.426-1.223c1.757,0.084,3.521,0.02,5.309,0.02c0.223-0.799,0.398-1.432,0.621-2.24
		c1.215-0.068,2.449-0.137,3.971-0.223c0-2.977,0-5.963,0-8.973c0.986-0.238,1.708-0.414,2.613-0.635
		c0.062-0.588,0.188-1.232,0.195-1.875c0.025-2.021,0.07-4.047,0-6.064c-0.243-6.93,1.172-13.413,4.859-19.37
		c0.521-0.84,0.482-2.09,0.521-3.156c0.086-2.242-0.673-4.512,0.332-6.738c0.143-0.316-0.107-1.031-0.411-1.289
		c-1.3-1.105-1.018-2.52-0.426-3.619c0.587-1.092,0.553-2.027,0.399-3.127c-0.232-1.662-0.436-3.342-0.512-5.018
		c-0.088-1.93-0.162-3.871,1.115-5.572c0.32-0.43,0.378-1.1,0.439-1.672c0.227-2.094,0.336-4.201,0.621-6.283
		c0.256-1.863,0.412-3.649-0.932-4.833c1.045-1.585,1.971-2.987,3.006-4.552c0.225,0.332,0.793,0.795,0.736,1.164
		c-0.201,1.34,0.488,2.139,1.389,2.717c0,0.257,0.035,0.371-0.008,0.416c-3.186,3.682-2.607,8.162-2.754,12.541
		c1.592,0.551,1.721-0.799,2.181-1.594c0.224,0.303,0.405,0.551,0.606,0.824c0.537-0.467,0.898-0.783,1.361-1.184
		c0.035,0.486,0.062,0.844,0.093,1.262c0.406-0.107,0.77-0.201,0.989-0.258c0.229,0.574,0.512,1.096,0.641,1.654
		c0.367,1.57-0.8,2.633-1.433,3.836c-0.614,1.172-0.538,2.15,0.413,2.93c1.479,1.213,2.084,2.801,2.293,4.77
		c2.469-1.141,4.178-0.072,5.657,1.715c-0.241,2.066-1.214,3.688-2.662,5.031c-1.096,1.014-1.366,2.152-1.03,3.619
		c0.738,3.229,0.986,6.404-0.328,9.66c-0.668,1.654-0.607,3.639-0.691,5.482c-0.11,2.429,0.082,2.563,2.812,3.085
		c0,5.051,0,10.152,0,15.412c1.715,0.203,2.051,1.197,1.989,2.629c-0.106,2.428-0.029,4.863-0.029,7.525
		c1.905,0.09,3.628,0.172,5.438,0.26c0.197,0.666,0.38,1.281,0.613,2.068c3.396,0,6.742,0,10.297,0
		c0.102,1.404,0.189,2.623,0.289,4.01c0.688,0.074,1.33,0.199,1.974,0.201c3.202,0.02,6.403,0.033,9.604-0.002
		c1.136-0.01,2.041,0.123,2.851,1.15c1.085,1.379,2.732,1.908,4.479,2.008c5.545,0.33,11.09,0.656,16.635,0.982
		c0.666,0.039,1.333,0.059,2.203,0.098c0.136,1.504,0.268,2.961,0.412,4.551c5.748,0,11.354,0,17.23,0c0-7.678,0-15.305,0-23.275
		c4.312,0,8.381,0,12.689,0c0-5.021,0-9.703,0-14.506c1.023-0.154,1.82-0.275,2.85-0.432c0-3.205,0-6.376,0-9.737
		c1.686-0.113,3.15-0.215,4.889-0.332c0-2.941,0-5.764,0-8.793c1.57-0.092,2.873-0.166,4.535-0.262c0-2.621,0-5.174,0-7.992
		c5.041,0,9.721,0,14.68,0c0-14.283,0-28.311,0-42.511c4.449,0,8.615,0,12.955,0c0.146,1.128,0.291,2.26,0.467,3.63
		c4.156,0,8.25,0,12.598,0c0,15.709,0,31.164,0,46.844c1.553,0.092,2.865,0.166,4.521,0.262c0,3.57,0,7.133,0,10.848
		c5.355,0,10.365,0,15.586,0c0.098-1.24,0.193-2.455,0.311-3.93c4.678,0,9.271,0,14.088,0c0.107-1.729,0.199-3.201,0.301-4.803
		c0.963-0.127,1.852-0.244,2.951-0.391c0-3.844,0-7.691,0-11.719c2.004-0.078,1.809-1.428,1.807-2.693
		c-0.004-13.141-0.002-26.283-0.002-39.424c0-3.355,0-6.71,0-10.111c0.887-0.225,1.592-0.404,2.357-0.6
		c0.057-1.008,0.107-1.92,0.156-2.801c1.867-0.547,9.117-0.668,12.662-0.18c0,1.755-0.486,3.77,0.145,5.335
		c0.566,1.401,1.088,3.303,3.072,4.023c0,15.188,0,30.425,0,45.745c0.713,0.246,1.316,0.453,1.947,0.672
		c0.064,0.234,0.182,0.473,0.184,0.711c0.02,3.117,0.01,6.234,0.039,9.352c0.008,0.785-0.193,1.592,0.957,2.041
		c0.428,0.17,0.604,1.416,0.607,2.168c0.041,8.426,0.025,16.853,0.025,25.274c0,0.922,0,1.846,0,3.119
		c3.336,0.188,6.555,0.117,10.111,0.029c0-1.225,0-2.295,0-3.361c0-32.349,0.018-64.7-0.037-97.048
		c-0.004-1.908,0.363-3.473,1.838-4.682c2.771-2.276,3.859-5.178,3.238-8.693c-0.199-1.128-0.408-2.302-0.891-3.322
		c-0.885-1.875-1.975-3.648-3.123-5.726c1.461-0.11,2.611-0.196,3.908-0.29c0.197-0.658,0.404-1.354,0.631-2.104
		c0.189-0.078,0.412-0.254,0.637-0.258c3.959-0.029,7.918-0.035,11.877-0.045c0.254-0.004,0.588-0.068,0.744,0.062
		c1.668,1.412,3.766,1.015,5.811,1.274c0,2.439,0,4.768,0,7.288c-1.051,0.13-2.088,0.261-3.258,0.411c0,3.664,0,7.258,0,11.004
		c0.535,0.183,1.135,0.385,1.979,0.672c0,7.561,0,15.193,0,22.957c1.225,0,2.207,0,3.541,0c2.1-8.271,4.221-16.632,6.379-25.125
		c0.869,0,1.654,0,2.697,0c0,2.553,0.082,5.066-0.027,7.57c-0.076,1.771,0.297,3.287,1.385,4.705
		c0.947,1.229,1.721,2.592,2.57,3.896c0.172-0.053,0.346-0.107,0.518-0.163c0-17.196,0-34.396,0-51.702
		c0.986-0.141,1.711-0.245,2.643-0.379c0.1-1.559,0.199-3.113,0.309-4.812c2.008,0,3.9,0,6.076,0c0,1.928,0,3.822,0,5.977
		c4.166,0.411,8.104,0,12.359,0.287c0.039,0.984,0.111,1.949,0.113,2.915c0.006,17.271,0.004,34.539,0.004,51.81
		c0,12.045,0.006,24.094-0.008,36.141c-0.002,1.613,0.029,3.107,1.229,4.48c0.561,0.639,0.604,1.867,0.607,2.834
		c0.035,13.479,0.021,26.958,0.021,40.438c0,0.906,0,1.814,0,2.891c2.049,0,3.857,0,5.928,0c0-3.059,0-6.137,0-9.242
		c0.922-0.301,1.617-0.529,2.5-0.816c0-21.267,0-42.554,0-63.976c0.879-0.135,1.586-0.245,2.494-0.385c0-5.055,0-9.994,0-15.006
		c0.818-0.201,1.438-0.358,2.184-0.545c0-3.156,0-6.256,0-9.465c0.801-0.241,1.488-0.447,2.295-0.688
		c0.068-1.468,0.137-2.957,0.213-4.572c0.912-0.113,1.723-0.215,2.869-0.357c0-7.17,0-14.354,0-21.589
		c1.15-0.104,1.969-0.179,3.154-0.286c0.045-9.665-0.01-19.293,0.033-29.424c0.773,0.567,1.316,0.759,1.396,1.073
		c0.164,0.632,0.1,1.333,0.1,2.005c0.002,7.75,0.002,15.5,0.002,23.25c0,0.924,0,1.85,0,2.916c0.795,0.18,1.502,0.342,2.457,0.561
		c0,7.053,0,14.18,0,21.445c1.004,0.152,1.793,0.273,2.715,0.416c0.088,1.559,0.174,3.049,0.268,4.666
		c0.965,0.111,1.861,0.213,2.988,0.336c0.078,0.574,0.227,1.203,0.236,1.836c0.033,2.021-0.012,4.043,0.023,6.064
		c0.018,1.018-0.367,2.207,1.225,2.615c0.285,0.072,0.424,1.164,0.432,1.787c0.039,3.791,0.021,7.584,0.021,11.373
		c0,0.818,0,1.637,0,2.451c0.188,0.078,0.377,0.153,0.566,0.232c1.988-2.41,4.047-4.768,5.539-7.562
		c0.211-0.396,0.084-0.984,0.084-1.486c0.006-7.652,0.01-15.309,0.012-22.964c0.002-2.847,0-5.69,0-8.614
		c1.168-0.127,1.984-0.215,3.162-0.346c0.156-2.866,0.047-5.781,0.066-8.689c0.02-2.947,0.006-5.895,0.006-8.846
		c0-2.947,0-5.896,0-8.843c0-2.951,0-5.898,0-8.847c0-2.943,0-5.888,0-9.185c3.35,0,6.578,0,10.107,0c0-1.252,0-2.152,0-3.052
		c0-5.983,0.035-11.964-0.023-17.944c-0.014-1.353,0.326-2.408,1.268-3.394c1.51-1.585,2.824-3.355,4.367-4.902
		c1.117-1.119,1.535-2.325,1.396-3.848c-0.084-0.911-0.016-1.835-0.016-2.933c0.756-0.09,1.387-0.225,2.018-0.227
		c1.033,0,1.914-0.139,2.775-0.892c0.625-0.546,1.635-0.649,2.66-1.016c0.068-0.839,0.152-1.819,0.248-2.969
		c0.738,0,1.418,0,2.219,0c0.072,1.039,0.137,1.937,0.211,3.026c1.486,0.093,2.885,0.179,4.389,0.272
		c0.123,0.779,0.236,1.504,0.379,2.409c0.818,0.134,1.695,0.277,2.6,0.427c0.088,0.251,0.271,0.499,0.234,0.709
		c-0.514,3.021,0.709,5.444,2.746,7.472c2.586,2.574,3.266,5.595,3.08,9.159c-0.246,4.79-0.061,9.602-0.061,14.402
		c0,0.916,0,1.835,0,3.058c3.326,0.333,6.506,0.013,9.959,0.225c0.318,2.429,0.105,4.849,0.141,7.248
		c0.039,2.524,0.01,5.055,0.01,7.582c0,2.441,0,4.884,0,7.326c0,2.529,0,5.057,0,7.584c0,2.441,0,4.885,0,7.33
		c0,2.526,0,5.053,0,7.58c0,2.433,0,4.865,0,7.482c1.748,0,3.297,0,5.148,0c0-11.379,0-22.787,0-34.34c0.91,0,1.529,0,2.387,0
		c0,6.062,0,12.012,0,18.143c0.928,0.088,1.635,0.152,2.525,0.234c0.139-1.121,0.256-2.09,0.389-3.166
		c0.908-0.141,1.799-0.28,2.928-0.46c0-6.469,0-12.925,0-19.664c3.227,0,6.211,0,9.451,0c0-11.791,0-23.293,0-34.994
		c1.879,0,3.504,0,5.41,0c0,11.544,0,23.044,0,34.812c3.254,0,6.244,0,9.59,0c0.223,6.59-0.035,12.941,0.148,19.325
		c1.033,0.173,1.84,0.307,2.736,0.456c0.156,0.672,0.309,1.309,0.479,2.025c0.604,0.029,1.174,0.059,2.035,0.102
		c0-5.514,0-10.946,0-16.545c0.979-0.072,1.682-0.121,2.713-0.195c0,35.768,0,71.348,0,107.086c2.537,0,4.764,0,7.229,0
		c0-9.736,0-19.391,0-29.328c2.172-0.104,4.135-0.199,6.463-0.311c0.035-7.557,0.012-15.021,0.016-22.484
		c0.004-7.58,0-15.162,0-22.746c0-7.496,0-14.994,0-22.49s0-14.989,0-22.619c0.604-0.287,1.174-0.557,1.91-0.91
		c0.062-1.151,0.127-2.393,0.205-3.824c0.779-0.173,1.566-0.346,2.484-0.551c0.062-0.342,0.227-0.747,0.184-1.128
		c-0.176-1.63,0.521-2.758,1.568-4.01c1.768-2.119,3.211-4.516,4.658-6.878c0.355-0.576,0.268-1.464,0.271-2.209
		c0.023-4.633,0.01-9.266,0.01-13.899c0-0.822,0-1.644,0-2.465c0.189-0.082,0.381-0.163,0.57-0.245
		c0.307,0.344,0.799,0.649,0.881,1.04c0.146,0.729,0.062,1.506,0.062,2.264c0.002,4.55,0.029,9.099-0.018,13.647
		c-0.012,1.234,0.227,2.308,0.965,3.306c1.605,2.152,3.287,4.261,4.693,6.537c0.658,1.063,0.75,2.478,1.174,4.007
		c0.469,0.124,1.252,0.333,2.164,0.571c0.078,1.317,0.154,2.631,0.238,4.065c0.984,0.121,1.875,0.225,3.016,0.362
		c0,30.427,0,60.79,0,91.388c1.699,0.113,3.166,0.211,4.904,0.328c0,8.625,0,17.178,0,25.883c1.5,0,2.719,0,4.297,0
		c0.275-2.629,0.096-5.291,0.127-7.943c0.029-2.611,0.008-5.223,0.008-7.834c0-2.684,0-5.371,0-7.998
		c2.873-0.885,3.129-0.807,4.535,1.262c0.662,0.971,1.326,1.943,1.996,2.922c6.256,0,12.465,0,18.963,0c0-15.407,0-30.689,0-46.102
		c1.256-0.115,2.24-0.203,3.543-0.32c0.037-0.831,0.105-1.715,0.109-2.596c0.01-7.16-0.033-14.323,0.041-21.483
		c0.014-1.206,0.385-2.465,0.836-3.603c0.615-1.559,1.443-3.039,2.221-4.532c0.971-1.875,1.998-3.724,1.629-5.97
		c0.613-0.301,1.125-0.551,1.807-0.885c0-2.468,0-4.975,0-7.652c0.805-0.035,1.432-0.062,2.051-0.091
		c0.137,0.358,0.293,0.587,0.301,0.818c0.031,1.683,0,3.368,0.055,5.051c0.043,1.252-0.438,2.634,1.102,3.531
		c0.385,0.222,0.307,1.239,0.457,1.985c0.973,0.117,1.947,0.234,2.896,0.35c0.225,1.411,0.162,2.84,0.713,3.971
		c0.525,1.076,1.637,1.9,2.586,2.729c0.9,0.787,0.832,1.765,0.832,2.771c-0.004,7.836-0.01,15.671,0.01,23.506
		c0.002,0.923-0.402,2.084,1.096,2.43c0.207,0.049,0.346,0.713,0.385,1.107c0.061,0.666,0.021,1.344,0.021,2.02
		c0.004,15.416,0.004,30.832,0.004,46.25c0,0.994,0,1.992,0,3.156c1.178,0,2.145,0,3.424,0c0.035-0.848,0.111-1.736,0.111-2.627
		c0.006-11.373,0.049-22.746-0.039-34.115c-0.014-1.853,0.492-3.17,1.852-4.398c2.057-1.865,4.004-3.861,5.9-5.893
		c0.945-1.011,1.971-1.369,3.332-1.344c3.861,0.076,7.723,0.026,11.895,0.026c0.287-4.776,0.105-9.374,0.139-13.962
		c0.031-4.548,0.006-9.097,0.006-13.648c0-4.633,0-9.266,0-13.899c0-4.549,0-9.097,0-13.646c0-4.633,0-9.267,0-13.9
		c0-4.55,0-9.099,0-13.648c0-4.617,0-9.234,0-13.919c0.867-0.178,1.5-0.308,2.324-0.478c0-6.041,0-12.084,0-18.475
		c2.902,0,5.619,0,8.582,0c0-4.685,0-9.027,0-13.399c0.842-0.248,1.455-0.427,2.236-0.656c0-0.807,0.02-1.555-0.002-2.303
		c-0.072-2.157,0.57-3.954,2.389-5.277c0.414-0.303,0.779-0.894,0.865-1.402c0.498-3.055,1.975-5.335,5.08-6.573
		c0-12.351,0-24.71,0-37.206c0.711-0.065,1.248-0.114,2.004-0.184c0,12.514,0,24.867,0,37.309c3.262,1.465,4.703,4.059,5.051,7.385
		c0.053,0.473,0.219,1.042,0.535,1.361c1.455,1.462,1.588,3.256,1.533,5.153c-0.023,0.859-0.307,1.868,1.072,2.206
		c0.293,0.071,0.477,1.134,0.488,1.746c0.053,2.514,0.023,5.031,0.023,7.724c1.229,0.142,2.279,0.262,3.648,0.42
		c0,2.488,0,4.961,0,7.579c2.047,0,3.766,0,5.738,0c0-2.086,0-4.074,0-6.231c1.023,0,1.801,0,2.857,0c0,6.724,0,13.342,0,20.058
		c1.039,0.199,1.832,0.349,2.855,0.542c0,32.278,0,64.593,0,97.193c5.402,0,10.584,0,16.123,0c0.066,9.256,0.02,18.229,0.029,27.205
		c0.008,8.918,0,17.84,0,26.969c0.836,0.068,1.525,0.125,2.426,0.195c0-4.219,0-8.238,0-12.363c0.729-0.258,1.32-0.467,2.061-0.73
		c0-1.686,0-3.428,0-5.361c-0.482-0.162-1.078-0.365-1.803-0.609c0-0.594,0-1.223,0-1.973c1.121-0.111,2.176-0.219,3.42-0.342
		c0-31.656,0-63.223,0-94.847c0.895-0.222,1.611-0.398,2.326-0.577c0.055-0.062,0.117-0.117,0.166-0.179
		c0.049-0.068,0.131-0.144,0.131-0.212c0.006-8.331,0.006-16.657,0.006-25.023c0.775-0.269,1.301-0.452,2.018-0.701
		c0.066-1.262,0.135-2.583,0.213-4.055c1.516-0.173,1.648-1.203,1.617-2.494c-0.076-3.111-0.023-6.223-0.023-9.413
		c0.75-0.199,1.377-0.364,2.227-0.589c0-1.93,0-3.919,0-5.995c0.744-0.308,1.324-0.547,1.844-0.763
		c0.557-2.383,1.01-4.743,1.686-7.036c0.322-1.096,0.83-2.362,1.672-3.022c1.217-0.957,1.262-2.032,1.258-3.314
		c-0.02-7.583-0.01-15.164-0.01-22.746c0-0.912,0-1.825,0-2.856c0.695,0,1.162,0,1.934,0c0,0.936,0,1.839,0,2.742
		c0,7.833,0.014,15.668-0.01,23.503c-0.002,1.207,0.15,2.253,0.959,3.271c0.604,0.756,0.92,1.793,1.188,2.753
		c0.703,2.543,1.477,5.083,1.9,7.677c0.293,1.801,0.055,3.691,0.055,5.667c0.682,0.225,1.279,0.424,2.088,0.692
		c0,3.716,0,7.475,0,11.318c0.809,0.228,1.428,0.401,2.133,0.6c0.078,1.335,0.152,2.666,0.234,4.112
		c0.762,0.163,1.467,0.312,2.41,0.512c0,0.952,0,1.865,0,2.776c0,6.824-0.01,13.649,0.012,20.47
		c0.004,1.024-0.377,2.256,1.158,2.707c0.248,0.075,0.439,0.665,0.479,1.037c0.076,0.75,0.033,1.513,0.033,2.27
		c0,29.57,0,59.14,0,88.707c0,0.988,0,1.973,0,3.152c1.695,0,3.094,0,4.646,0c0.078,0.812,0.141,1.439,0.219,2.229
		c-0.934,0.148-1.723,0.277-2.623,0.424c0,1.871,0,3.68,0,5.631c1.094,0.113,2.072,0.211,3.246,0.336c0,3.404,0,6.752,0,10.211
		c0.873,0.199,1.574,0.359,2.516,0.574c0,8.172,0,16.395,0,24.832c1.596,0.121,2.971,0.223,4.553,0.344c0,14.737,0,29.364,0,44.196
		c1.418,0,2.627,0,4.039,0c0-14.828,0-29.699,0-44.7c0.73-0.256,1.328-0.469,2.02-0.713c0.094-0.604,0.195-1.26,0.322-2.068
		c0.521-0.186,1.117-0.4,1.848-0.66c0-7.982,0-15.975,0-24.045c0.719-0.24,1.322-0.439,1.943-0.645
		c0.059-0.258,0.164-0.5,0.168-0.74c0.012-3.959,0.006-7.92,0.029-11.879c0.006-0.789-0.266-1.686,0.867-2.119
		c0.283-0.107,0.416-0.852,0.449-1.314c0.064-0.998,0.02-2.008,0.02-3.035c0.648-0.264,1.17-0.473,1.744-0.704
		c0.078-1.451,0.154-2.853,0.234-4.34c0.939-0.153,1.738-0.287,2.625-0.434c0.076-1.327,0.145-2.566,0.223-3.978
		c1.047,0,2.002,0,3.09,0c0.105,0.848,0.203,1.659,0.346,2.846c1.217,0,2.443-0.003,3.668,0c2.107,0.01,4.213-0.042,6.316,0.056
		c4.324,0.192,6.975,2.929,7.102,7.271c0.049,1.748,0.006,3.5,0.006,5.316c1.246,0.119,2.217,0.215,3.443,0.332
		c0,4.717,0,9.314,0,13.955c1.17,0.131,2.074,0.234,3.33,0.377c0.109,2.732,0.031,5.482,0.049,8.227
		c0.012,2.693,0.002,5.391,0.002,8.088c0,2.764,0,5.531,0,8.451c4.232,0,8.217,0,12.361,0c0.043-0.926,0.107-1.746,0.107-2.566
		c0.01-5.645-0.004-11.289,0.014-16.932c0.002-1.309-0.316-2.701,1.088-3.652c1.527-1.031,3.145-1.758,4.971-1.291
		c1.361,0.348,2.807,0.805,3.926,1.613c2.578,1.871,4.99,3.975,7.455,6.006c1.459,1.197,2.254,2.684,1.947,4.646
		c-0.062,0.398,0.068,0.828,0.121,1.35c0.633,0.176,1.248,0.346,1.996,0.551c0.045,0.656,0.127,1.311,0.129,1.967
		c0.018,2.777-0.006,5.559,0.01,8.34c0.078,14.735,0.16,29.474,0.252,44.208c0.004,0.74,0.084,1.477,0.137,2.305
		c1.229,0,2.295,0,3.58,0c0-19.539,0-38.969,0-58.612c1.406-0.152,2.619-0.283,4.066-0.443c0-3.887,0-7.736,0-11.758
		c0.961-0.068,1.701-0.162,2.438-0.166c5.561-0.014,11.119-0.014,16.682,0c0.963,0.004,1.947-0.209,2.514,1.076
		c0.17,0.379,1.363,0.414,2.09,0.418c6.656,0.029,13.311,0.016,19.965,0.016c0.904,0,1.811,0,2.807,0
		c0.059,0.945,0.105,1.607,0.141,2.266c0.02,0.34-0.113,0.842,0.059,0.984c2.346,1.967,0.738,4.732,1.48,7.062
		c0.49,0.213,1.012,0.438,1.732,0.748c0,12.172,0,24.353,0,36.661c1.461,0,2.695,0,4.113,0c0.066-0.641,0.188-1.283,0.189-1.926
		c0.023-2.779-0.016-5.561,0.023-8.338c0.016-1.121-0.336-2.314,0.764-3.273c0.326-0.283,0.215-1.111,0.225-1.691
		c0.029-1.504,0.01-3.008,0.01-4.576c0.828-0.176,1.463-0.309,2.291-0.484c0.676-2.815,2.479-4.763,5.543-4.784
		c3.068-0.023,4.961,1.826,5.658,4.81c0.84,0.135,1.564,0.248,2.51,0.398c0,1.242-0.061,2.408,0.02,3.566
		c0.086,1.232-0.547,2.658,1.105,3.531c0.355,0.189,0.219,1.418,0.219,2.168c0.014,7.414,0.01,14.826,0.01,22.24
		c0,0.92,0,1.842,0,3.137c4.418,0.02,8.674,0.023,13.104-0.014c0.156-0.664,0.301-1.277,0.486-2.062
		c0.629-0.135,1.344-0.281,2.234-0.467c0.191-0.473,0.434-1.066,0.703-1.729c0.688,0,1.35,0,1.725,0
		c0.865,0.896,1.592,1.656,2.318,2.412c0.15-0.07,0.297-0.139,0.447-0.211c0,2.578,0,5.158,0,7.939c1.846,0,3.479,0,5.43,0
		c0-2.654,0-5.387,0-8.26c0.928-0.088,1.584-0.084,2.207-0.227c0.674-0.158,1.305-0.572,1.982-0.656
		c1.291-0.164,2.627-0.365,3.893-0.186c0.961,0.133,1.846,0.828,3.078,1.424c0.062,0.748,0.16,1.893,0.268,3.209
		c0.58,0.033,1.105,0.059,1.887,0.102c0-1.338,0-2.502,0-3.666c0-3.877-0.012-7.75,0.014-11.627c0.004-0.65,0.01-1.775,0.293-1.877
		c1.986-0.691,1.334-2.295,1.354-3.59c0.059-4.207,0.023-8.412,0.023-12.721c0.74-0.186,1.359-0.342,2.119-0.537
		c0.123-1.076,0.107-2.328,1.74-2.445c0.252-0.02,0.432-0.993,0.68-1.612c2.32,0,4.662,0,7.195,0
		c-0.043,1.636,1.037,2.036,2.479,1.942c0.137,0.779,0.248,1.418,0.365,2.105c0.584,0.166,1.131,0.32,1.855,0.525
		c0,5.209,0,10.41,0,15.699c0.799,0.176,1.43,0.312,2.289,0.498c0.045,0.662,0.137,1.391,0.139,2.117
		c0.014,4.213-0.02,8.424,0.027,12.635c0.01,1.072-0.516,2.428,1.199,2.898c0.209,0.055,0.264,0.906,0.283,1.395
		c0.043,1.002,0.014,2.01,0.014,3.242c1.701,0.098,3.258,0.186,4.973,0.283c0,13.688,0,27.296,0,40.909
		C675.974,384.304-265.397,384.446-268.693,383.903z"/>
</g>
<polyline fill="#D68370" points="-0.578,651.453 167.017,374.043 333.508,369.543 500,654.529 "/>
<polyline points="227.248,650.387 244.468,614.311 261.573,613.725 278.68,650.787 "/>
<polyline points="239.914,590.656 248.43,564.801 256.889,564.381 265.349,590.943 "/>
<polyline points="243.98,545.816 249.998,519.959 255.976,519.541 261.953,546.104 "/>
<polyline points="245.44,500.629 250.678,479.965 255.879,479.629 261.081,500.857 "/>
<polyline points="248.441,465.33 251.893,447.91 255.32,447.629 258.749,465.523 "/>
<polyline points="250.03,437.047 251.972,424.17 253.899,423.961 255.828,437.189 "/>
<polyline points="250.776,413.932 252.111,404.949 253.437,404.803 254.763,414.031 "/>
<polyline points="251.523,399.701 252.274,392.422 253.02,392.303 253.766,399.781 "/>
<polyline points="251.608,388.223 252.219,382.891 252.824,382.803 253.431,388.281 "/>
<polyline points="251.95,379.246 252.332,375.613 252.71,375.553 253.089,379.287 "/>
<text transform="matrix(1 0 0 1 9.9033 53.1797)" font-family="'AgentOrange'" font-size="47.6782">You Win!</text>
<path fill="#E0AE25" stroke="#000000" stroke-width="2" stroke-miterlimit="10" d="M762.404,350.096"/>
<g>
	<linearGradient id="head_1_" gradientUnits="userSpaceOnUse" x1="180.3555" y1="282.6064" x2="209.9781" y2="247.3035">
		<stop  offset="0.1983" style="stop-color:#E3A825"/>
		<stop  offset="0.4893" style="stop-color:#97C13D"/>
	</linearGradient>
	<path id="head" fill="url(#head_1_)" stroke="#000000" stroke-miterlimit="10" d="M164.188,261.836c0,0,0-7.668,8-11.334
		s10-4.666,10.666-2.332c0.666,2.332,2.334-8,7-8s11-2.334,14.334,2.666c3.332,5,4,11-0.334,13.666
		c-4.334,2.668-4.334,2.668-4.334,2.668s-0.332,2.666,7.334,0c7.666-2.668,3.666-4,3.666-4l-0.332-4l15,12.332l-6.668,17.668
		l-14.667,14.666l-29.333-20.666l-7-3.334c0,0-3-3.334,0.333-3s16.333,4.668,23.333,5.334s10,1.666,12.334,0.332
		c2.333-1.332,6.666-4.666,5.333-5.666s-1.333-1-1.333-1l-9-0.334l-10-3.666c0,0-11.334-1.334-14-1.334
		C171.854,262.502,164.188,261.836,164.188,261.836z"/>
	<linearGradient id="front_arm_1_" gradientUnits="userSpaceOnUse" x1="245.8931" y1="301.4316" x2="281.9347" y2="258.4789">
		<stop  offset="0" style="stop-color:#E3A825"/>
		<stop  offset="0.2611" style="stop-color:#97C13D"/>
	</linearGradient>
	<path id="front_arm" fill="url(#front_arm_1_)" stroke="#000000" stroke-miterlimit="10" d="M225.521,277.486
		c0,0-1,8.705,7.666,12.535c8.667,3.83,12.667,3.83,12.667,3.83s4.667-1.045,1.667-3.135c-3-2.088-5-3.133-5-3.133l2.666-3.482
		l19-11.141h2.667l4.667,10.445l0.333,9.748c0,0-12,5.223-12,8.705c0,3.48,0.667,10.793,0.667,10.793l2.666-1.045l1.667,3.135h3
		c0,0,3.667,3.48,5,1.74s3.667-2.438,4-4.178c0.333-1.742-1-6.268-2-4.875s9.667-4.178,9.667-9.4s-1.334-42.479-7.334-43.174
		s-6-1.043-13.666,2.438C255.854,260.773,225.521,277.486,225.521,277.486z"/>
	<path id="yellow_belly" fill="#E7AC22" d="M202.854,297.338c0,0,5.327,13.428,15.981,20.516
		c10.653,7.086,17.884,12.309,17.884,12.309s3.424,0.746,1.902-2.611c-1.522-3.357-3.805-6.342-0.761-7.088
		c3.043-0.744,22.068-12.682,25.113-11.561c3.044,1.117,1.141-2.986,1.141-2.986s-12.937,0.746-20.166-1.863
		c-7.229-2.611-20.547-16.412-20.929-19.77c-0.38-3.357,1.142,1.865-2.663,6.342c-3.805,4.475-11.416,7.459-14.459,7.086
		C202.854,297.338,202.854,297.338,202.854,297.338z"/>
	<linearGradient id="back_arm_1_" gradientUnits="userSpaceOnUse" x1="180.3979" y1="344.7129" x2="217.5205" y2="344.7129">
		<stop  offset="0.5449" style="stop-color:#97C13D"/>
		<stop  offset="0.8264" style="stop-color:#E3A825"/>
	</linearGradient>
	<path id="back_arm" fill="url(#back_arm_1_)" stroke="#000000" stroke-miterlimit="10" d="M203.854,298.502
		c0,0-6.333,31.334-5.667,33.334c0.667,2-5.666,7-7,17c-1.333,10-2,21.334-2,21.334s-10,6.666-8.666,8.666
		c1.333,2,3,5.334,3.333,7.334s-0.001,5.334,1.667,4.666c1.666-0.666,3.334-3.998,1.666-6.332c-1.666-2.334-5-4.334-2.333-4.668
		c2.667-0.332,4.001-3.666,4.333-1c0.334,2.668-2.333,8.666,0.667,8.334c3-0.334,7.999-3.666,9.667-5.666c1.666-2,1-4,0.666-5.668
		c-0.333-1.666-4.333-2.666-2.333-7c2-4.332,9.333-16.332,10-21c0.667-4.666-2.667-6.666,1.333-12s8.334-17.332,8.334-18.666
		S201.854,299.836,203.854,298.502z"/>
	<path id="front_leg" fill="#93C13E" stroke="#000000" stroke-miterlimit="10" d="M285.187,286.17c0,0,11.668,1,18.334,11.332
		c6.666,10.334,25.666,37,22,40c-3.668,3-4.668,2.002-6.668,3.334c-2,1.334-11,5.666-18.666,5.334
		c-7.666-0.334-11.666,0.332-11.666,0.332s18.998,16.666,19.666,19c0.122,0.43,0.458,0.869,0.867,1.293
		c0.229,0.236,0.48,0.469,0.73,0.691c0.52,0.463,1.033,0.887,1.318,1.225c0.668,0.791,0.086,1.125-4.582,0.459
		c-2.119-0.303-6.42-0.967-11.873-1.775c-18.566-2.758-50.49-7.211-55.127-4.893c-6,3-11,2.334-7.668,0.668
		c3.334-1.668,9-4.666,10-5.334c1-0.666-0.332-1.666-3.332-0.666s-16.334,5.666-16.334,5.666s-5.332-1.666-2-2.666
		c3.334-1,20.666-6,14.666-6.334s-14,1.666-14,1.666s-5.332-1.666-1.332-2c4-0.332,10-3.666,13.666-3.332
		c3.666,0.332,24.666,3.334,27.334,3.666c2.666,0.334,24.666,3.334,24.666,3.334s-12.803-5.752-21.52-10.613
		c-2.967-1.652-5.459-3.203-6.814-4.387c-5.332-4.668-19.666-11.668-20.332-16c-0.668-4.334-2.668-5.334,2.332-7.334
		s13.002-8.334,17.334-8.334c4.334,0,7-1,7-1L285.187,286.17z"/>
	<path id="back_leg" fill="#97C13D" stroke="#000000" stroke-miterlimit="10" d="M294.186,367.502c0,0,2,14.334,8,19.334
		s14,14.668,16,20.334s4.667,12.334,8.667,14s7.333,8.332,7.333,8.332s11,14,15,16.334s6.667,10.666,10.667,11
		s8.999-0.334,9.666,1.666s-5,2.668-5,2.668s6.334,0.666,7,2.666s16.666,12.666-1,3.666c-17.667-9-17.667-9-17.667-9
		s8.333,4,7.333,6s-2.666,1-12.666-6.666c-10-7.668-19.334-19.668-20.334-20.668s-10-7.998-19-18.666
		c-9-10.666-21.999-27.666-24.666-29s-11.333-10.334-13-17.666c-1.667-7.334-1.667-8.668-1.667-8.668s-5.333-6.666-5.333-11.666
		s0-5,0-5l22.666,9.666L294.186,367.502z"/>
	<circle fill="#3F3220" cx="195.854" cy="250.002" r="8"/>
	<circle cx="195.854" cy="249.752" r="5.25"/>
	<path fill="none" stroke="#000000" stroke-miterlimit="10" d="M173.854,273.502c5.109-0.002,10.699,1.062,15.487,2.812
		c2.428,0.887,4.71,1.902,7.013,2.938c2.058,0.924,3.725,2.506,5.676,3.443c-2.207,0.391-4.604-0.277-6.889-0.156
		c-0.18,1.998,3.83,4.301,5.22,5.727c1.668,1.709,3.474,2.969,5.493,4.236"/>
	<path opacity="0.4" fill="none" stroke="#FFFFFF" stroke-miterlimit="10" d="M196.104,247.002c1.646-0.279,3.936,0.404,3.5,2.5"/>
	<path opacity="0.8" fill="#BD3026" d="M199.604,274.252c2.627,0.359,1.885-2.643,0.742-3.492c-1.338-0.996-4.001-0.762-5.687-0.758
		c-3.202,0.008-9.094-1.01-11.337,1.508c2.064,1.596,16.314,5.57,17.531,2.242"/>
	<path fill="none" stroke="#000000" stroke-miterlimit="10" d="M208.354,305.002c1.465,4.049,0.51,10.98,0.5,15.25
		c-0.011,4.621-0.757,7.912-2.799,12.014c-0.922,1.852-2.33,2.848-2.701,4.977c-0.458,2.623,0.124,5.447,0.25,8.004
		c0.119,2.41-0.053,3.154-1.312,4.945c-1.109,1.574-2.35,3.203-2.438,5.236c0.057-2.646,2.529-6.625,3.688-9.176
		c0.889-1.953,1.687-7.115,3.812-7.5"/>
	<path fill="none" stroke="#000000" stroke-miterlimit="10" d="M189.604,380.002c-0.488-2.561,1.94-5.061,3.938-2.992
		c1.423,1.473,0.812,5.621,0.812,7.027c0.16-2.236-1.518-7.863,1.494-8.791c3.357-1.033,2.756,5.051,2.756,7.006"/>
	<path fill="none" stroke="#000000" stroke-miterlimit="10" d="M281.521,387.836c-0.203-2.926-1.315-7.453,1.908-9.092
		c2.463-1.252,7.375-0.293,9.444,1.168c2.779,1.963,4.377,4.357,5.99,7.266c1.045,1.887,3.024,3.955,4.007,6.207
		c-0.768-2.076-2.479-4.764-1.35-6.883"/>
	<linearGradient id="SVGID_5_" gradientUnits="userSpaceOnUse" x1="288.7422" y1="346.0215" x2="296.1472" y2="325.6763">
		<stop  offset="0.574" style="stop-color:#E3A825"/>
		<stop  offset="1" style="stop-color:#97C13D"/>
	</linearGradient>
	<path fill="url(#SVGID_5_)" d="M287.777,345.025c0.305-9.561-4.13-11.115-11.114-14.475c-3.032-1.459-11.05-4.209-12.099-7.973
		c5.201-0.33,10.551-0.109,15.78-0.064c7.196,0.064,13.428,3.219,19.972,6.174c4.819,2.174,10.166,2.908,15.09,4.539
		c2.828,0.936,7.32,1.596,9.497,3.311c-3.289,0.887-4.448,1.941-7.382,4.15c-2.489,1.873-6.157,2.338-9.166,3.322
		c-3.129,1.023-21.427,4.947-20.915,0.277"/>
	<path fill="none" stroke="#000000" stroke-width="2" stroke-miterlimit="10" d="M277.854,307.502
		c5.042,0.166,9.822-0.822,14.725,0.334c4.229,0.998,7.506,3.424,11.276,5.225c5.001,2.389,13.424,8.838,15.333,14.441"/>
	<path fill="none" stroke="#000000" stroke-miterlimit="10" d="M305.521,342.836c1.744-0.365,4.088-2.67,3.667-4.332"/>
	<path fill="none" stroke="#000000" stroke-miterlimit="10" d="M280.521,343.17c-0.271-1.762-3.2-4.09-4.667-5.666"/>
	<path fill="none" stroke="#000000" stroke-miterlimit="10" d="M301.854,337.504c-0.231,1.416-0.847,2.646-2,3.332"/>
	<path fill="none" stroke="#000000" stroke-miterlimit="10" d="M277.188,343.504c-1.009-0.914-5.609-3.838-5-6.668"/>
	<path fill="none" stroke="#000000" stroke-miterlimit="10" d="M271.521,341.504c-1.427-1.432-3.856-2.934-4-5.334"/>
	<path fill="none" stroke="#000000" stroke-miterlimit="10" d="M302.521,342.17c0.839-1.273,1.582-2.717,1.333-4.334"/>
	<path fill="none" stroke="#000000" stroke-miterlimit="10" d="M265.521,339.17c-0.592-0.104-1.206-1.104-1.333-2.334"/>
	<path fill="none" stroke="#000000" stroke-miterlimit="10" d="M309.188,341.836c1.807-1.01,3.651-2.176,3.666-4.332"/>
	<path fill="none" stroke="#000000" stroke-width="2" stroke-miterlimit="10" d="M287.188,345.17
		c0.849-4.898-8.717-11.828-12.433-14.668c-5.396-4.121-11.717-7.043-18.234-8.332"/>
	<path fill="none" stroke="#020202" stroke-width="5" stroke-miterlimit="10" d="M283.188,285.838
		c-3.015,1.119-7.694,0.334-11,0.334"/>
	<path fill="none" stroke="#FFFFFF" stroke-width="0.5" stroke-miterlimit="10" d="M277.479,283.064
		c0.067,0.166,0.089,0.369,0.062,0.562"/>
	<g>
		<circle fill="#594927" cx="277.521" cy="286.504" r="3.5"/>
		<path fill="none" stroke="#FFFFFF" stroke-width="0.5" stroke-miterlimit="10" d="M277.542,286.252
			c0-0.908,0.007-1.785-0.125-2.668c-0.016,0.48,0.07,0.889,0.139,1.355c0.054,0.363-0.021,1.094,0.124,1.424
			c0.225,0.512,0.945,1.025,1.284,1.465c0.228,0.297,0.472,0.561,0.641,0.924"/>
		<path fill="none" stroke="#FFFFFF" stroke-width="0.5" stroke-miterlimit="10" d="M274.229,286.627c0.188,0,0.375,0,0.562,0"/>
		<path fill="none" stroke="#FFFFFF" stroke-width="0.5" stroke-miterlimit="10" d="M277.729,289.814c0-0.209,0-0.416,0-0.625"/>
		<path fill="none" stroke="#FFFFFF" stroke-width="0.5" stroke-miterlimit="10" d="M280.104,286.314c0.208,0,0.417,0,0.625,0"/>
		<path fill="none" stroke="#FFFFFF" stroke-width="0.5" stroke-miterlimit="10" d="M274.979,284.439
			c0.073,0.123,0.151,0.221,0.25,0.312"/>
		<path fill="none" stroke="#FFFFFF" stroke-width="0.5" stroke-miterlimit="10" d="M275.542,289.127
			c0.128-0.182,0.294-0.346,0.438-0.5"/>
		<path fill="none" stroke="#FFFFFF" stroke-width="0.5" stroke-miterlimit="10" d="M279.604,284.939
			c0.16-0.088,0.345-0.203,0.5-0.312"/>
		<path fill="none" stroke="#FFFFFF" stroke-width="0.5" stroke-miterlimit="10" d="M276.104,283.377
			c0.065,0.158,0.086,0.328,0.062,0.5"/>
		<path fill="none" stroke="#FFFFFF" stroke-width="0.5" stroke-miterlimit="10" d="M274.729,288.252
			c-0.038,0.021,0.322-0.223,0.438-0.312"/>
		<path fill="none" stroke="#FFFFFF" stroke-width="0.5" stroke-miterlimit="10" d="M274.292,285.502
			c0.136,0.104,0.317,0.207,0.438,0.25"/>
		<path fill="none" stroke="#FFFFFF" stroke-width="0.5" stroke-miterlimit="10" d="M280.104,287.564
			c0.193,0.156,0.392,0.275,0.562,0.438"/>
		<path fill="none" stroke="#FFFFFF" stroke-width="0.5" stroke-miterlimit="10" d="M278.792,284.189
			c-0.021-0.248,0.055-0.482,0.25-0.625"/>
		<path fill="none" stroke="#FFFFFF" stroke-width="0.5" stroke-miterlimit="10" d="M276.792,289.189
			c0.065,0.158,0.086,0.328,0.062,0.5"/>
	</g>
	<path fill="#BE2D26" stroke="#000000" stroke-miterlimit="10" d="M218.188,316.502c1.264,3.633,0.069,7.229,2.658,10.418
		c2.036,2.506,4.752,4.881,6.907,7.34c2.184,2.492,5.479,4.4,8.026,6.676c1.254,1.119,3.091,3.912,5.025,4.182
		c0.033-1.975-0.058-4.244,0.457-6.133c0.483-1.77,2.158-3.5,1.535-5.426c-0.912-2.816-6.309-4.514-8-6.664
		c-5.088-0.25-12.213-6.869-16.276-9.725"/>
	<path fill="#BE2D26" stroke="#000000" stroke-miterlimit="10" d="M224.551,277.531c-0.429,5.039-2.009,9.436,0.45,13.898
		c2.178,3.951,5.148,6.502,8.513,9.277c7.85,6.479,18.298,4.857,27.872,5.744c0.055-2.457-1.174-4.33-0.922-7.047
		c3.481-1.746,8.446-2.783,11.394-5.088c2.807-2.195,2.144-5.602,1.934-9.229c-3.229-3.139-10.36-11.742-16.085-7.838
		c-0.279,4.729,0.582,9.441-2.56,12.807c-3.138,3.363-8.275,3.322-13.014,3.154c-6.319-0.227-18.144-8.207-17.237-15.68"/>
	<path fill="#6D2712" stroke="#000000" stroke-miterlimit="10" d="M224.993,265.334c3.48,0,6.492-0.23,8.574,3.01
		c0.917,1.428,1.156,3.246,1.066,5.133c-2.395,0.016-6.693,2.572-8.611,3.984c-2.116,1.555-2.426,6.465-3.029,9.039
		c-0.674,2.871-0.936,6.236-2.738,8.539c-2.368,3.025-5.184,5.211-8.928,6c-1.633,0.344-3.411,0.725-5.139,0.629
		c-1.859-0.104-1.635-0.85-1.992-2.5c-0.739-3.416,1.112-4.219,3.256-6.375c2.335-2.348,4.715-4.67,7.198-6.783
		c3.247-2.762,5.133-5.469,6.214-9.51c0.488-1.826,2.01-11.627,4.795-11.166"/>
	<path fill="none" stroke="#000000" stroke-miterlimit="10" d="M188.354,398.502c-4.746-3.854-7.312-8.113-6.957-14.205
		c1.591-0.598,2.569-2.516,3.944-3.557c1.298-0.984,3.542-1.178,4.513-2.488"/>
	<path fill="none" stroke="#000000" stroke-miterlimit="10" d="M198.854,373.252c6.621-2.721,9.326,3.43,12.961,7.188
		c-1.162,0.469-2.137,1.168-3.418,1.27c-1.76-3.223-4.057-5.945-8.043-4.957"/>
	<path fill="none" stroke="#000000" stroke-miterlimit="10" d="M188.604,384.002c-0.169,0.771-0.709,1.773-1.25,2.5"/>
	<path fill="none" stroke="#000000" stroke-miterlimit="10" d="M186.604,390.252c0.311,1.877,7.012,6.98,1.792,7.043
		c0.032,0.344-0.134,0.305-0.292,0.457"/>
	<path fill="#BE2D26" stroke="#000000" stroke-miterlimit="10" d="M218.188,287.17c0.708,1.875-2.737,9.705-5.074,10.258
		c-3.529,0.832-4.221-5.375-3.184-7.832c0.423-1.002,6.833-6.035,8.274-5.441c1.079,0.445,1.452,4.25,0.983,5.348
		c-0.733,1.711-2.163,1.295-3,3"/>
	<g>
		<path fill="#BE2D26" stroke="#000000" stroke-miterlimit="10" d="M219.188,289.502c0,0,0.334-15.334,9.334-23.666
			c9-8.334,23.666-18,35-21c11.333-3,18.333-5,26.333-2s6.999,9,19.333,7s15-4,15-4l-14-16.333c0,0-12.334-3.334-28,2.333
			c-15.666,5.666-31.333,7.334-41.333,17.334s-20.333,29-20.333,29"/>
		<path fill="none" stroke="#000000" stroke-miterlimit="10" d="M284.855,240.836c-1.531,0.855-4.952-0.23-7-0.334
			c-3.1-0.156-6.247,0-9.351,0c-2.839,0-14.766-1.455-15.649,1.334"/>
		<ellipse opacity="0.4" stroke="#000000" stroke-miterlimit="10" cx="295.855" cy="238.336" rx="3.667" ry="2.953"/>
		<ellipse opacity="0.4" stroke="#000000" stroke-miterlimit="10" cx="301.854" cy="231.752" rx="2" ry="1.703"/>
		<path opacity="0.4" stroke="#000000" stroke-miterlimit="10" d="M305.917,250.127c0.338-0.037,0.675-0.051,1.013-0.057
			c0.735-0.213,1.477-0.289,2.23-0.299c-0.148-1.521-1.711-2.723-3.638-2.723c-1.974,0-3.57,1.258-3.651,2.83
			c1.044,0.289,2.1,0.387,3.165,0.42C305.313,250.221,305.602,250.162,305.917,250.127z"/>
		<path opacity="0.4" stroke="#000000" stroke-miterlimit="10" d="M319.103,247.629c1.391-0.461,2.886-0.91,3.974-1.709
			c-0.044-0.076-0.087-0.152-0.131-0.229c-0.275-0.502-0.55-1.035-0.733-1.58c-0.048-0.139-0.072-0.248-0.082-0.33
			c-0.066,0.006-0.146,0.006-0.261-0.012c-0.704-0.105-1.255-0.555-1.634-1.137c-1.409,0.41-2.422,1.488-2.422,2.766
			C317.813,246.295,318.319,247.088,319.103,247.629z"/>
		<ellipse opacity="0.4" stroke="#000000" stroke-miterlimit="10" cx="295.293" cy="231.805" rx="1.542" ry="1.234"/>
		<ellipse opacity="0.4" stroke="#000000" stroke-miterlimit="10" cx="289.23" cy="232.055" rx="1.542" ry="1.234"/>
		<path opacity="0.4" stroke="#000000" stroke-miterlimit="10" d="M284.854,231.064c-0.172,0-0.328-0.025-0.484-0.047
			c-0.297,0.158-0.601,0.309-0.937,0.42c-0.31,0.104-0.65,0.156-0.995,0.18c0,0.682,0.69,1.234,1.542,1.234s1.542-0.553,1.542-1.234
			c0-0.219-0.08-0.42-0.206-0.598C285.166,231.039,285.019,231.064,284.854,231.064z"/>
		<path opacity="0.4" stroke="#000000" stroke-miterlimit="10" d="M278.417,233.064c-0.088,0-0.164-0.018-0.248-0.023
			c-0.427,0.414-1.008,0.693-1.743,0.748c0.167,0.537,0.77,0.938,1.492,0.938c0.852,0,1.542-0.553,1.542-1.234
			c0-0.201-0.077-0.385-0.186-0.553C279.011,233.014,278.731,233.064,278.417,233.064z"/>
		<path opacity="0.4" stroke="#000000" stroke-miterlimit="10" d="M270.19,240.445c0.305,0.025,0.608,0.055,0.914,0.057
			c0.162,0.002,0.317,0.027,0.473,0.055c0.085-0.029,0.167-0.061,0.258-0.082c0.229-0.217,0.375-0.49,0.375-0.795
			c0-0.682-0.69-1.234-1.542-1.234s-1.542,0.553-1.542,1.234c0,0.195,0.062,0.379,0.164,0.543c0.205,0.018,0.411,0.061,0.612,0.137
			C269.997,240.395,270.094,240.42,270.19,240.445z"/>
		<path opacity="0.4" stroke="#000000" stroke-miterlimit="10" d="M262.284,238.006c-0.002,0-0.002,0-0.004,0.002
			c-0.087,0.037-0.173,0.074-0.259,0.111c-0.413,0.18-0.827,0.355-1.245,0.525c-0.408,0.168-0.834,0.188-1.248,0.113
			c-0.033,0.012-0.066,0.027-0.1,0.037c0.17,0.535,0.77,0.932,1.489,0.932c0.852,0,1.542-0.553,1.542-1.234
			c0-0.18-0.062-0.342-0.151-0.494C262.301,238,262.292,238.002,262.284,238.006z"/>
		<ellipse opacity="0.4" stroke="#000000" stroke-miterlimit="10" cx="273.855" cy="235.867" rx="1.542" ry="1.234"/>
		<ellipse opacity="0.4" stroke="#000000" stroke-miterlimit="10" cx="266.074" cy="238.305" rx="0.636" ry="0.609"/>
		<ellipse opacity="0.4" stroke="#000000" stroke-miterlimit="10" cx="270.074" cy="236.297" rx="0.636" ry="0.305"/>
		<ellipse opacity="0.4" stroke="#000000" stroke-miterlimit="10" cx="276.012" cy="238.93" rx="0.636" ry="0.609"/>
		<ellipse opacity="0.4" stroke="#000000" stroke-miterlimit="10" cx="279.387" cy="240.117" rx="0.636" ry="0.609"/>
		<ellipse opacity="0.4" stroke="#000000" stroke-miterlimit="10" cx="282.387" cy="236.492" rx="2.386" ry="2.297"/>
		<ellipse opacity="0.4" stroke="#000000" stroke-miterlimit="10" cx="277.917" cy="236.314" rx="0.277" ry="0.229"/>
		<path opacity="0.4" stroke="#000000" stroke-miterlimit="10" d="M289.141,242.906c0.533-0.459,0.882-1.082,0.882-1.789
			c0-1.406-1.309-2.547-2.917-2.547s-2.917,1.141-2.917,2.547c0,0.059,0.016,0.115,0.021,0.174c1.436,0.174,2.698,0.67,3.932,1.314
			C288.516,242.65,288.851,242.752,289.141,242.906z"/>
		<ellipse opacity="0.4" stroke="#000000" stroke-miterlimit="10" cx="287.479" cy="236.627" rx="0.636" ry="0.609"/>
		<ellipse opacity="0.4" stroke="#000000" stroke-miterlimit="10" cx="290.887" cy="234.992" rx="0.636" ry="0.609"/>
		<ellipse opacity="0.4" stroke="#000000" stroke-miterlimit="10" cx="307.48" cy="237.555" rx="2.979" ry="3.172"/>
		<ellipse opacity="0.4" stroke="#000000" stroke-miterlimit="10" cx="294.324" cy="243.055" rx="0.636" ry="0.609"/>
		<ellipse opacity="0.4" stroke="#000000" stroke-miterlimit="10" cx="307.792" cy="232.189" rx="0.636" ry="0.609"/>
		<ellipse opacity="0.4" stroke="#000000" stroke-miterlimit="10" cx="301.729" cy="236.127" rx="0.636" ry="0.609"/>
		<ellipse opacity="0.4" stroke="#000000" stroke-miterlimit="10" cx="302.074" cy="243.523" rx="2.073" ry="2.453"/>
		<path opacity="0.4" stroke="#000000" stroke-miterlimit="10" d="M308.501,244.086c0,1.838,1.547,3.328,3.448,3.328
			s3.448-1.49,3.448-3.328s-1.547-3.328-3.448-3.328S308.501,242.248,308.501,244.086z"/>
		<path opacity="0.4" stroke="#000000" stroke-miterlimit="10" d="M313.048,232.514c-0.528,0.713-0.859,1.625-0.859,2.635
			c0,2.252,1.589,4.078,3.542,4.078c0.808,0,1.545-0.324,2.141-0.852C315.825,236.73,314.692,234.205,313.048,232.514z"/>
		<ellipse opacity="0.4" stroke="#000000" stroke-miterlimit="10" cx="305.98" cy="229.7" rx="1.354" ry="0.839"/>
		<ellipse opacity="0.4" stroke="#000000" stroke-miterlimit="10" cx="298.074" cy="229.129" rx="0.636" ry="0.472"/>
		<ellipse opacity="0.4" stroke="#000000" stroke-miterlimit="10" cx="296.949" cy="246.742" rx="0.636" ry="0.609"/>
	</g>
	<g opacity="0.4">
		<g>
			<path d="M181.19,388.354c0.078,0.076,0.156,0.15,0.233,0.227c0.804,0.771,2.023,0.756,2.829,0
				c1.218-1.146,0.488-2.992,0.224-4.391c-0.437-2.299-3.85-1.639-3.929,0.531c-0.097,2.654,0.715,5.508,1.796,7.91
				c1.396,3.1,5.306,3.582,6.521,7.121c0.832,2.426,4.697,1.385,3.857-1.062c-0.987-2.877-2.735-4.803-5.187-6.545
				c-1.43-1.016-1.716-1.389-2.263-3.113c-0.44-1.389-0.777-2.848-0.725-4.311c-1.31,0.178-2.619,0.355-3.929,0.531
				c0.113,0.6,0.31,1.211,0.317,1.82c0.195-0.471,0.391-0.943,0.586-1.414c-0.033,0.031-0.065,0.062-0.099,0.092
				c0.943,0,1.886,0,2.829,0c-0.078-0.074-0.156-0.148-0.234-0.225C182.16,383.738,179.328,386.562,181.19,388.354L181.19,388.354z"
				/>
		</g>
	</g>
	<g opacity="0.4">
		<g>
			<path d="M184.354,381.627c0,0.168,0,0.334,0,0.5c0,1.363,1.137,2.5,2.5,2.5c1.418,0,2.427-1.139,2.5-2.5
				c-0.049,0.896-0.005,0.135,0.073-0.137c0.066-0.234,0.144-0.465,0.213-0.697c-1.607-0.443-3.215-0.887-4.822-1.33
				c-0.152,0.848-0.213,1.682-0.214,2.539c-0.001,1.363,1.138,2.5,2.5,2.5c1.363,0,2.499-1.137,2.5-2.5c0-0.25,0.002-0.5,0.008-0.75
				c0.004-0.125,0.011-0.25,0.02-0.375c0.039-0.641-0.106,0.553,0.009-0.084c0.241-1.34-0.346-2.691-1.746-3.076
				c-1.332-0.367-2.69,0.439-3.076,1.746c-0.213,0.723-0.423,1.402-0.464,2.164c1.667,0,3.333,0,5,0c0-0.166,0-0.332,0-0.5
				c0-1.363-1.137-2.5-2.5-2.5S184.354,380.264,184.354,381.627L184.354,381.627z"/>
		</g>
	</g>
	<g opacity="0.4">
		<g>
			<path d="M203.729,374.564c-0.043-0.52-0.133-0.93-0.398-1.385c-0.912,0.912-1.824,1.824-2.736,2.736
				c1.077,0.666,2.416,0.707,3.416,1.492c1.272,1,2.313,2.225,3.43,3.383c1.791,1.863,4.616-0.969,2.828-2.828
				c-1.123-1.168-2.2-2.32-3.43-3.383c-0.598-0.516-1.242-0.955-1.962-1.281c-0.737-0.332-1.578-0.412-2.263-0.836
				c-1.729-1.068-3.732,1.029-2.736,2.736c-0.05-0.211-0.099-0.422-0.148-0.635C199.942,377.117,203.944,377.137,203.729,374.564
				L203.729,374.564z"/>
		</g>
	</g>
	<path fill="#56401D" d="M244.266,375.375c-3.492-5.633-10.889-7.369-16.521-3.877l-56.946,35.301
		c-5.633,3.49-7.368,10.889-3.877,16.521l17.036,27.48c3.491,5.633,10.889,7.369,16.521,3.877l56.946-35.301
		c5.633-3.49,7.369-10.889,3.877-16.521L244.266,375.375z"/>
	<path opacity="0.4" fill="none" stroke="#FFFFFF" stroke-width="6" stroke-miterlimit="10" d="M220.519,382.838
		c2.564-0.1,4.539-1.729,6.917-2.434c2.291-0.678,4.692-0.594,7.059-0.566c7.16,0.082,8.479,3.781,10.358,10"/>
	<path fill="#93C13E" stroke="#000000" stroke-miterlimit="10" d="M257.611,280.996c-3.767,0-7.53-0.082-10.636,1.764
		c-0.931,0.553-3.199,2.102-3.369,3.199c-0.285,1.836,1.41,1.756,2.767,3.068c1.117,1.082,1.479,3.27,2.776,3.729
		c1.323,0.467,4.051-1.439,4.961-2.154c2.54-1.998,5.637-6.055,4.029-9.344"/>
	<path fill="#93C13E" stroke="#000000" stroke-miterlimit="10" d="M282.354,284.752c-0.521,2.115-0.725,3.791-2.75,4.75
		c-1.666,0.789-4.15,1.227-5.712-0.072c-0.097-0.09-0.093-0.094,0.013-0.014c1.284,4.459-4.226,6.973-7.558,8.578
		c-1.524,0.736-4.003,1.344-4.938,2.758c-0.991,1.502-0.411,3.787,0.116,5.371c0.088,0.264,2.23,3.547,2.291,2.34
		c0.051-1.031,0.039-2.09,0.024-3.135c0.455,1.562,0.868,4.432,2.975,4.137c0.083-1.611,0.384-3.74-0.474-5.123
		c-0.277,1.787,1.139,4.189,2.724,4.627c0.105-2.01,0.265-4.266-0.468-6.141c-0.313,1.871,1.354,4.115,2.962,4.643
		c0.173-1.912-0.745-3.617-0.418-5.426c7.797-2.58,10.434-9.396,11.462-17.043"/>
	<path fill="none" stroke="#000000" stroke-miterlimit="10" d="M336.104,286.002c0.167,0.084,0.333,0.166,0.5,0.25"/>
</g>
</svg>
